<mxfile host="app.diagrams.net" modified="2024-05-17T09:47:18.470Z" agent="Mozilla/5.0 (Windows NT 10.0; Win64; x64) AppleWebKit/537.36 (KHTML, like Gecko) Chrome/124.0.0.0 Safari/537.36" etag="SxbBGp8XWFZuobY0WUPH" version="24.2.0" type="device">
  <diagram name="Page-1" id="OmgS06gCkE3QF8OgkzuO">
    <mxGraphModel dx="1615" dy="803" grid="0" gridSize="10" guides="1" tooltips="1" connect="1" arrows="1" fold="1" page="1" pageScale="1" pageWidth="850" pageHeight="1100" math="0" shadow="0">
      <root>
        <mxCell id="0" />
        <mxCell id="1" parent="0" />
        <mxCell id="WlwYwQOrX8rfweeySpX8-8" style="edgeStyle=orthogonalEdgeStyle;rounded=0;orthogonalLoop=1;jettySize=auto;html=1;exitX=0.5;exitY=1;exitDx=0;exitDy=0;entryX=0.5;entryY=0;entryDx=0;entryDy=0;" edge="1" parent="1" source="WlwYwQOrX8rfweeySpX8-2" target="WlwYwQOrX8rfweeySpX8-3">
          <mxGeometry relative="1" as="geometry" />
        </mxCell>
        <mxCell id="WlwYwQOrX8rfweeySpX8-2" value="START" style="rounded=1;whiteSpace=wrap;html=1;" vertex="1" parent="1">
          <mxGeometry x="365" y="20" width="120" height="60" as="geometry" />
        </mxCell>
        <mxCell id="WlwYwQOrX8rfweeySpX8-6" style="edgeStyle=orthogonalEdgeStyle;rounded=0;orthogonalLoop=1;jettySize=auto;html=1;exitX=0;exitY=0.5;exitDx=0;exitDy=0;entryX=0.5;entryY=0;entryDx=0;entryDy=0;" edge="1" parent="1" source="WlwYwQOrX8rfweeySpX8-3" target="WlwYwQOrX8rfweeySpX8-4">
          <mxGeometry relative="1" as="geometry" />
        </mxCell>
        <mxCell id="WlwYwQOrX8rfweeySpX8-7" style="edgeStyle=orthogonalEdgeStyle;rounded=0;orthogonalLoop=1;jettySize=auto;html=1;exitX=1;exitY=0.5;exitDx=0;exitDy=0;entryX=0.5;entryY=0;entryDx=0;entryDy=0;" edge="1" parent="1" source="WlwYwQOrX8rfweeySpX8-3" target="WlwYwQOrX8rfweeySpX8-5">
          <mxGeometry relative="1" as="geometry" />
        </mxCell>
        <mxCell id="WlwYwQOrX8rfweeySpX8-3" value="Student/Faculty Login" style="rhombus;whiteSpace=wrap;html=1;" vertex="1" parent="1">
          <mxGeometry x="330" y="110" width="190" height="140" as="geometry" />
        </mxCell>
        <mxCell id="WlwYwQOrX8rfweeySpX8-15" style="edgeStyle=orthogonalEdgeStyle;rounded=0;orthogonalLoop=1;jettySize=auto;html=1;exitX=0.25;exitY=1;exitDx=0;exitDy=0;entryX=0.25;entryY=0;entryDx=0;entryDy=0;" edge="1" parent="1" source="WlwYwQOrX8rfweeySpX8-4" target="WlwYwQOrX8rfweeySpX8-12">
          <mxGeometry relative="1" as="geometry" />
        </mxCell>
        <mxCell id="WlwYwQOrX8rfweeySpX8-4" value="ENTER STUDENT LOGIN DETAILS" style="rounded=1;whiteSpace=wrap;html=1;" vertex="1" parent="1">
          <mxGeometry x="190" y="250" width="120" height="60" as="geometry" />
        </mxCell>
        <mxCell id="WlwYwQOrX8rfweeySpX8-18" style="edgeStyle=orthogonalEdgeStyle;rounded=0;orthogonalLoop=1;jettySize=auto;html=1;exitX=0.25;exitY=1;exitDx=0;exitDy=0;entryX=0.25;entryY=0;entryDx=0;entryDy=0;" edge="1" parent="1" source="WlwYwQOrX8rfweeySpX8-5" target="WlwYwQOrX8rfweeySpX8-13">
          <mxGeometry relative="1" as="geometry" />
        </mxCell>
        <mxCell id="WlwYwQOrX8rfweeySpX8-5" value="ENTER FACULTY LOGIN DETAILS" style="rounded=1;whiteSpace=wrap;html=1;" vertex="1" parent="1">
          <mxGeometry x="560" y="250" width="120" height="60" as="geometry" />
        </mxCell>
        <mxCell id="WlwYwQOrX8rfweeySpX8-10" value="STUDENT" style="text;html=1;align=center;verticalAlign=middle;resizable=0;points=[];autosize=1;strokeColor=none;fillColor=none;" vertex="1" parent="1">
          <mxGeometry x="250" y="150" width="80" height="30" as="geometry" />
        </mxCell>
        <mxCell id="WlwYwQOrX8rfweeySpX8-11" value="FACULTY" style="text;html=1;align=center;verticalAlign=middle;resizable=0;points=[];autosize=1;strokeColor=none;fillColor=none;" vertex="1" parent="1">
          <mxGeometry x="550" y="150" width="80" height="30" as="geometry" />
        </mxCell>
        <mxCell id="WlwYwQOrX8rfweeySpX8-16" style="edgeStyle=orthogonalEdgeStyle;rounded=0;orthogonalLoop=1;jettySize=auto;html=1;exitX=0.75;exitY=0;exitDx=0;exitDy=0;entryX=0.75;entryY=1;entryDx=0;entryDy=0;" edge="1" parent="1" source="WlwYwQOrX8rfweeySpX8-12" target="WlwYwQOrX8rfweeySpX8-4">
          <mxGeometry relative="1" as="geometry" />
        </mxCell>
        <mxCell id="WlwYwQOrX8rfweeySpX8-24" style="edgeStyle=orthogonalEdgeStyle;rounded=0;orthogonalLoop=1;jettySize=auto;html=1;exitX=0.5;exitY=1;exitDx=0;exitDy=0;entryX=0.5;entryY=0;entryDx=0;entryDy=0;" edge="1" parent="1" source="WlwYwQOrX8rfweeySpX8-12">
          <mxGeometry relative="1" as="geometry">
            <mxPoint x="190.00000000000045" y="550" as="targetPoint" />
          </mxGeometry>
        </mxCell>
        <mxCell id="WlwYwQOrX8rfweeySpX8-12" value="VERIFY STUDENT DETAILS" style="rounded=1;whiteSpace=wrap;html=1;" vertex="1" parent="1">
          <mxGeometry x="190" y="390" width="120" height="60" as="geometry" />
        </mxCell>
        <mxCell id="WlwYwQOrX8rfweeySpX8-19" style="edgeStyle=orthogonalEdgeStyle;rounded=0;orthogonalLoop=1;jettySize=auto;html=1;exitX=0.75;exitY=0;exitDx=0;exitDy=0;entryX=0.75;entryY=1;entryDx=0;entryDy=0;" edge="1" parent="1" source="WlwYwQOrX8rfweeySpX8-13" target="WlwYwQOrX8rfweeySpX8-5">
          <mxGeometry relative="1" as="geometry" />
        </mxCell>
        <mxCell id="WlwYwQOrX8rfweeySpX8-30" style="edgeStyle=orthogonalEdgeStyle;rounded=0;orthogonalLoop=1;jettySize=auto;html=1;exitX=0.5;exitY=1;exitDx=0;exitDy=0;entryX=0.5;entryY=0;entryDx=0;entryDy=0;" edge="1" parent="1" source="WlwYwQOrX8rfweeySpX8-13" target="WlwYwQOrX8rfweeySpX8-22">
          <mxGeometry relative="1" as="geometry" />
        </mxCell>
        <mxCell id="WlwYwQOrX8rfweeySpX8-13" value="VERIFY FACULTY DETAILS" style="rounded=1;whiteSpace=wrap;html=1;" vertex="1" parent="1">
          <mxGeometry x="560" y="390" width="120" height="60" as="geometry" />
        </mxCell>
        <mxCell id="WlwYwQOrX8rfweeySpX8-17" value="FAILURE" style="text;html=1;align=center;verticalAlign=middle;resizable=0;points=[];autosize=1;strokeColor=none;fillColor=none;" vertex="1" parent="1">
          <mxGeometry x="280" y="340" width="70" height="30" as="geometry" />
        </mxCell>
        <mxCell id="WlwYwQOrX8rfweeySpX8-20" value="FAILURE" style="text;html=1;align=center;verticalAlign=middle;resizable=0;points=[];autosize=1;strokeColor=none;fillColor=none;" vertex="1" parent="1">
          <mxGeometry x="660" y="340" width="70" height="30" as="geometry" />
        </mxCell>
        <mxCell id="WlwYwQOrX8rfweeySpX8-21" value="VIEW STUDENT ATTENDANCE" style="rounded=1;whiteSpace=wrap;html=1;" vertex="1" parent="1">
          <mxGeometry x="140" y="550" width="120" height="60" as="geometry" />
        </mxCell>
        <mxCell id="WlwYwQOrX8rfweeySpX8-22" value="MARK ATTENDANCE FOR A CLASS BY ENTERING ONLY ABSENTEES" style="rounded=1;whiteSpace=wrap;html=1;" vertex="1" parent="1">
          <mxGeometry x="530" y="540" width="180" height="80" as="geometry" />
        </mxCell>
        <mxCell id="WlwYwQOrX8rfweeySpX8-27" value="" style="edgeStyle=orthogonalEdgeStyle;rounded=0;orthogonalLoop=1;jettySize=auto;html=1;" edge="1" parent="1">
          <mxGeometry relative="1" as="geometry">
            <mxPoint x="320.1111111111113" y="550" as="targetPoint" />
            <mxPoint x="250" y="500" as="sourcePoint" />
          </mxGeometry>
        </mxCell>
        <mxCell id="WlwYwQOrX8rfweeySpX8-29" style="edgeStyle=orthogonalEdgeStyle;rounded=0;orthogonalLoop=1;jettySize=auto;html=1;exitX=0.5;exitY=1;exitDx=0;exitDy=0;" edge="1" parent="1">
          <mxGeometry relative="1" as="geometry">
            <mxPoint x="320.00000000000045" y="610" as="sourcePoint" />
            <mxPoint x="320" y="650" as="targetPoint" />
          </mxGeometry>
        </mxCell>
        <mxCell id="WlwYwQOrX8rfweeySpX8-26" value="APPLY FOR LEAVE" style="rounded=1;whiteSpace=wrap;html=1;" vertex="1" parent="1">
          <mxGeometry x="270" y="550" width="120" height="60" as="geometry" />
        </mxCell>
        <mxCell id="WlwYwQOrX8rfweeySpX8-28" value="VIEW LEAVE HISTORY" style="rounded=1;whiteSpace=wrap;html=1;" vertex="1" parent="1">
          <mxGeometry x="270" y="650" width="120" height="60" as="geometry" />
        </mxCell>
        <mxCell id="WlwYwQOrX8rfweeySpX8-31" value="SUCCESS" style="text;html=1;align=center;verticalAlign=middle;resizable=0;points=[];autosize=1;strokeColor=none;fillColor=none;" vertex="1" parent="1">
          <mxGeometry x="260" y="460" width="80" height="30" as="geometry" />
        </mxCell>
        <mxCell id="WlwYwQOrX8rfweeySpX8-32" value="SUCCESS" style="text;html=1;align=center;verticalAlign=middle;resizable=0;points=[];autosize=1;strokeColor=none;fillColor=none;" vertex="1" parent="1">
          <mxGeometry x="630" y="470" width="80" height="30" as="geometry" />
        </mxCell>
      </root>
    </mxGraphModel>
  </diagram>
</mxfile>
